<svg width="26" height="12" viewBox="0 0 26 12" fill="none" xmlns="http://www.w3.org/2000/svg">
<path d="M2.6838 4.28703V0.931896C2.6838 0.807574 2.6962 0.733011 2.90756 0.733011H5.75315C6.25029 0.733011 6.52367 1.15559 6.72255 1.95083L6.88408 2.58469H7.36867C7.45556 0.782916 7.53005 0 7.53005 0C7.53005 0 6.31231 0.13665 5.59155 0.13665H1.95079L-0.000488281 0.0744896V0.596434L0.658254 0.720682C1.11804 0.807722 1.22966 0.907017 1.26724 1.32967C1.26724 1.32967 1.30459 2.57229 1.30459 4.62279C1.30459 6.67299 1.26724 7.90336 1.26724 7.90336C1.26724 8.2761 1.11804 8.41275 0.658254 8.50001L-0.000488281 8.62434V9.14598L1.95079 9.08397H5.20655C5.93971 9.08397 7.64212 9.14598 7.64212 9.14598C7.67925 8.69853 7.92797 6.67299 7.96525 6.44959H7.50547L7.02081 7.55557C6.63551 8.42523 6.07644 8.48746 5.45497 8.48746H3.60329C2.9819 8.48746 2.68365 8.23889 2.68365 7.70462V4.87128C2.68365 4.87128 4.03812 4.87128 4.51023 4.90864C4.85824 4.93359 5.06939 5.03296 5.18138 5.51755L5.33058 6.16374H5.86463L5.8275 4.53567L5.90199 2.8955H5.36779L5.19393 3.61618C5.08193 4.08837 5.00752 4.17555 4.52278 4.22509C3.97611 4.2874 2.68358 4.27492 2.68358 4.27492V4.28725H2.6838V4.28703ZM10.0527 1.27991C9.87873 2.05035 9.70472 2.64678 9.09581 3.04448C8.72307 3.2929 8.35018 3.37979 8.20127 3.39227V3.86445H9.30717V7.67937C9.30717 8.74821 10.0156 9.27023 10.9599 9.27023C11.6931 9.27023 12.451 8.95957 12.7121 8.31324L12.451 7.9777C12.3267 8.18906 11.9293 8.49964 11.4322 8.49964C10.8855 8.49964 10.5872 8.12675 10.5872 7.18253V3.81499L12.4265 3.95179L12.5258 3.10656L10.5873 3.1812V1.29224L10.0527 1.27991ZM13.9796 7.14783L13.5075 7.16023C13.5323 7.43353 13.5448 7.78162 13.5448 8.10468C13.5448 8.44022 13.5324 8.75087 13.5075 8.89992C13.5075 8.89992 14.4519 9.24757 15.4088 9.24757C16.7011 9.24757 17.7326 8.62625 17.7326 7.40843C17.7326 5.32103 14.6011 5.63176 14.6011 4.22731C14.6011 3.64335 15.123 3.41958 15.6946 3.41958C16.142 3.41958 16.5147 3.58111 16.5893 3.81743L16.9 4.7494L17.3599 4.72459C17.3972 4.22745 17.422 3.65582 17.4966 3.19611C17.0988 3.02211 16.2662 2.92252 15.7447 2.92252C14.5265 2.92252 13.545 3.45694 13.545 4.64995C13.545 6.72511 16.6018 6.30261 16.6018 7.8313C16.6018 8.37783 16.2662 8.76313 15.5083 8.76313C14.8126 8.76313 14.4645 8.40286 14.3281 8.0423L13.9796 7.14783ZM21.4694 8.58344C20.75 10.593 19.8693 11.1136 19.0756 11.1136C18.7405 11.1136 18.5794 10.9647 18.5296 10.7294L18.3435 9.76161L17.8225 9.78642C17.7232 10.3571 17.624 10.9899 17.4877 11.5108C17.7979 11.7461 18.3186 11.8704 18.7281 11.8704C19.5842 11.8704 20.8864 11.7586 22.077 8.93064L24.0742 4.21727C24.2356 3.83264 24.2974 3.79543 24.7688 3.60924L25.0293 3.51024V3.07608L23.8508 3.13809L22.5857 3.07608V3.51024L22.908 3.60924C23.2304 3.70868 23.3795 3.83264 23.3795 4.05596C23.3795 4.16751 23.3422 4.2792 23.28 4.45269C23.094 4.92436 21.9404 7.72751 21.6306 8.32305L21.9403 8.21121C21.3944 6.85925 20.5637 4.60153 20.4396 4.21734C20.4148 4.14285 20.4024 4.08084 20.4024 4.01853C20.4024 3.82016 20.5388 3.65885 20.8365 3.59691L21.2459 3.51031V3.07615L19.5464 3.13816L18.1944 3.07615V3.51031L18.4177 3.58466C18.7278 3.68388 18.8023 3.77077 18.9883 4.20486C20.0175 6.56173 20.5016 7.85153 21.1587 9.53866L21.4694 8.58344Z" fill="white"/>
</svg>
