<svg width="13" height="13" viewBox="0 0 13 13" fill="none" xmlns="http://www.w3.org/2000/svg">
<path d="M0 1.39934C0 0.993724 0.140626 0.6591 0.421865 0.395465C0.703105 0.131818 1.06873 0 1.51872 0C1.96067 0 2.31825 0.129785 2.59146 0.389381C2.8727 0.65708 3.01332 1.00589 3.01332 1.43584C3.01332 1.82522 2.87672 2.1497 2.60351 2.40929C2.32227 2.67699 1.95263 2.81084 1.49461 2.81084H1.48256C1.0406 2.81084 0.683024 2.67699 0.409812 2.40929C0.1366 2.14159 0 1.80494 0 1.39934ZM0.156693 12.0465V3.91814H2.83252V12.0465H0.156693ZM4.31508 12.0465H6.99091V7.50775C6.99091 7.22382 7.02306 7.00479 7.08734 6.85067C7.19983 6.57485 7.37059 6.34163 7.5996 6.151C7.82862 5.96036 8.11588 5.86505 8.46141 5.86505C9.3614 5.86505 9.81138 6.47751 9.81138 7.70244V12.0465H12.4872V7.38607C12.4872 6.18547 12.206 5.27489 11.6435 4.65432C11.081 4.03374 10.3377 3.72345 9.41362 3.72345C8.37704 3.72345 7.56947 4.17368 6.99091 5.07412V5.09845H6.97886L6.99091 5.07412V3.91814H4.31508C4.33115 4.17773 4.33919 4.98488 4.33919 6.33961C4.33919 7.69432 4.33115 9.59661 4.31508 12.0465Z" fill="white"/>
</svg>
