<svg width="64" height="33" viewBox="0 0 64 33" fill="none" xmlns="http://www.w3.org/2000/svg">
<path fill-rule="evenodd" clip-rule="evenodd" d="M63.8041 16.1037C63.8041 24.9979 49.5204 32.2082 31.9023 32.2082C14.2834 32.2082 0 24.9979 0 16.1037C0 7.20987 14.2834 7.27164e-10 31.9023 7.27164e-10C49.5204 -8.36084e-05 63.8041 7.20987 63.8041 16.1037ZM31.9023 1.26785C14.9744 1.26785 1.25053 7.91026 1.25053 16.1036C1.25053 24.2972 14.9744 30.9396 31.9023 30.9396C48.8297 30.9396 62.553 24.2972 62.553 16.1036C62.553 7.91026 48.8297 1.26785 31.9023 1.26785Z" fill="#414B47"/>
<path fill-rule="evenodd" clip-rule="evenodd" d="M61.7598 16.1036C61.7598 23.8567 48.392 30.142 31.9024 30.142C15.4122 30.142 2.04459 23.8567 2.04459 16.1036C2.04459 8.35106 15.4122 2.06616 31.9024 2.06616C48.3921 2.06616 61.7598 8.35098 61.7598 16.1036ZM51.0377 9.53146H45.9169L45.2932 11.324H48.6077L44.827 12.6399L44.5771 13.3669L50.3948 11.449L51.0377 9.53146ZM18.3886 12.6776H16.3026C16.3026 12.6776 18.2359 7.4975 18.3909 7.10587C18.6667 6.412 18.8314 6.45974 18.8314 6.45974H15.9503C16.3069 6.63131 15.991 7.30754 15.991 7.30754C15.991 7.30754 13.6834 13.7677 13.5226 14.0904C13.3619 14.4138 13.2415 14.4544 13.2415 14.4544H18.2309L18.9288 12.5411C18.8686 12.7233 18.3886 12.6776 18.3886 12.6776ZM27.1406 14.4462H29.4906C29.4906 14.4462 29.3296 14.2065 29.4301 13.9443C29.5694 13.5801 30.8161 10.1691 30.8161 10.1691L31.3581 14.4462H33.4869L36.2775 6.83799C36.2775 6.83799 36.3917 6.48114 36.5473 6.48114L34.2855 6.47446C34.2855 6.47446 34.3502 6.73707 34.2696 6.93907C34.1897 7.14107 32.9039 10.5931 32.9039 10.5931L32.4018 6.47454H29.9725C29.9725 6.47454 30.0982 6.6762 30.0178 6.89819C29.9522 7.07828 27.4422 14.0045 27.4422 14.0045C27.4422 14.0045 27.2816 14.4462 27.1406 14.4462ZM37.8849 6.47671C37.8849 6.47671 38.0857 6.7997 37.824 7.54633C37.5629 8.29354 35.5147 13.8449 35.5147 13.8449C35.5147 13.8449 35.3535 14.3672 35.1332 14.4686L38.3464 14.4649C38.3464 14.4649 42.2416 14.6096 43.4469 10.4936C43.4469 10.4936 44.973 6.436 40.555 6.47671H37.8849ZM38.2258 12.6267C38.2258 12.6267 38.2361 12.6235 38.597 12.6235C39.1437 12.6235 40.156 12.5023 40.8363 10.8371C41.9543 8.09999 40.3945 8.19254 40.3945 8.19254H39.7919L38.2258 12.6267ZM9.65049 20.8919H14.7711L15.3943 19.0991H12.0802L15.8607 17.7834L16.1112 17.0568L10.2932 18.9746L9.65049 20.8919ZM18.6243 24.1987C18.5434 24.1987 18.5434 23.9382 18.5434 23.9382L19.4852 21.4257C19.4852 21.4257 20.6584 23.7401 20.739 23.9017C20.8195 24.0634 20.7788 24.1979 20.7788 24.1979H23.5857C23.318 24.1979 23.0418 23.6866 23.0418 23.6866L21.6445 21.1659C23.599 21.1659 24.2242 19.2184 24.2242 19.2184C25.188 16.123 21.944 16.2036 21.944 16.2036H18.6243C18.865 16.4729 18.6773 17.0381 18.6773 17.0381C18.6773 17.0381 16.6157 22.9636 16.4554 23.4215C16.2946 23.879 16.0001 24.1987 16.0001 24.1987H18.6243ZM20.6137 18.0416L20.0696 19.6494H20.5783C20.5783 19.6494 21.5694 19.7371 21.935 18.9451C21.935 18.9451 22.3627 18.0375 21.1671 18.0375C20.9054 18.0375 20.6137 18.0416 20.6137 18.0416ZM47.6679 24.228C47.4671 24.2321 47.6069 23.7382 47.6069 23.7382L48.4473 21.455C48.4473 21.455 49.58 23.7698 49.6595 23.9318C49.7401 24.0931 49.7002 24.2276 49.7002 24.2276H52.6068C52.3388 24.2276 52.0441 23.7163 52.0441 23.7163L50.6462 21.1949C52.6017 21.1949 53.1898 19.3176 53.1898 19.3176C54.2166 16.0763 50.9468 16.2333 50.9468 16.2333H47.6533C47.8948 16.5025 47.7073 17.0678 47.7073 17.0678C47.7073 17.0678 45.5596 23.016 45.3985 23.4731C45.2379 23.9317 44.9296 24.2235 44.9296 24.2235L47.6679 24.228ZM49.5818 19.6784C49.5818 19.6784 50.5652 19.7532 50.8662 18.9786C51.2214 18.0662 50.3349 18.0904 50.3349 18.0904H49.608L49.0726 19.6784H49.5818ZM27.6953 24.3964C30.5928 24.3964 32.317 21.5394 32.317 19.4896C32.317 17.3395 31.4378 15.9978 29.4301 15.9978C26.8686 15.9978 25.1976 17.9517 24.7664 20.3808C24.3701 22.6147 25.625 24.3964 27.6953 24.3964ZM27.8778 22.5072C28.6005 22.6413 29.3951 22.1185 29.81 20.4478C30.4393 17.9197 29.2795 17.8989 29.0678 17.8729C28.4266 17.7941 27.5705 18.5366 27.2227 20.0846C27.0635 20.7916 26.8946 22.324 27.8778 22.5072ZM33.0047 16.2333C33.0047 16.2333 33.204 16.3408 33.204 16.8519V23.7697C33.204 23.7697 33.1767 24.1484 33.0344 24.2276H35.1872C35.1872 24.2276 35.1872 24.0656 35.4009 23.7965C35.6153 23.5274 40.0866 17.4987 40.0866 17.4987C40.0866 17.4987 41.1063 16.2333 41.3736 16.2333H38.2924C38.2924 16.2333 38.5338 16.395 38.3464 16.691C38.1589 16.9872 35.4201 21.1053 35.4201 21.1053L35.4544 16.9515C35.4544 16.9515 35.4496 16.2855 35.7155 16.2296L33.0047 16.2333ZM46.0204 18.1194L46.7165 16.2315L41.4959 16.2321C41.4959 16.2321 41.6829 16.3981 41.4427 17.0708C41.2012 17.7444 39.0861 23.4761 39.0861 23.4761C39.0861 23.4761 38.7112 24.2295 38.6048 24.2295H43.9859L44.6287 22.3187C44.6287 22.3187 44.5485 22.4262 44.0398 22.4262H41.7635L42.246 21.1342H44.0124C44.0124 21.1342 44.3878 21.1075 44.468 21.2153L45.1907 19.1729C45.1907 19.1729 45.1379 19.3577 44.6551 19.3577H42.9415L43.451 17.9316H45.6193C45.6193 17.9317 45.9139 17.8908 46.0204 18.1194ZM18.803 14.4534H21.3786C21.3786 14.4534 21.3706 14.2545 21.4377 14.1254C21.5602 13.8921 21.8797 13.3293 21.8797 13.3293H24.4719L24.4769 14.0314C24.4769 14.0314 24.4902 14.2734 24.2994 14.4601H26.87C26.87 14.4601 26.6791 14.3523 26.644 14.0345L26.3214 7.00947C26.3214 7.00947 26.3075 6.56049 26.5201 6.46593H23.9701C23.9701 6.46593 24.1486 6.68783 23.8072 7.19249C23.4662 7.69724 19.1098 14.1906 19.1098 14.1906C19.1098 14.1906 19.0232 14.3575 18.803 14.4534ZM24.4225 9.18481L22.9912 11.526H24.4431L24.4225 9.18481Z" fill="#414B47"/>
</svg>
