<svg width="26" height="14" viewBox="0 0 26 14" fill="none" xmlns="http://www.w3.org/2000/svg">
<path fill-rule="evenodd" clip-rule="evenodd" d="M25.5145 6.72441C25.5145 10.4382 19.8021 13.4488 12.7578 13.4488C5.71157 13.4488 0 10.4382 0 6.72441C0 3.01067 5.71157 0 12.7578 0C19.8021 0 25.5145 3.01067 25.5145 6.72441Z" fill="white"/>
<path fill-rule="evenodd" clip-rule="evenodd" d="M24.9864 6.71903C24.9864 10.1297 19.509 12.8946 12.753 12.8946C5.99663 12.8946 0.519348 10.1297 0.519348 6.71903C0.519348 3.30849 5.99663 0.543701 12.753 0.543701C19.509 0.543669 24.9864 3.30849 24.9864 6.71903ZM12.753 1.02989C6.2616 1.02989 0.998892 3.57707 0.998892 6.71899C0.998892 9.86098 6.2616 12.4082 12.753 12.4082C19.2442 12.4082 24.5067 9.86098 24.5067 6.71899C24.5067 3.57707 19.2442 1.02989 12.753 1.02989Z" fill="#B7C0BD"/>
<path fill-rule="evenodd" clip-rule="evenodd" d="M24.2025 6.71892C24.2025 9.69201 19.0764 12.1023 12.7531 12.1023C6.42952 12.1023 1.30341 9.69201 1.30341 6.71892C1.30341 3.74602 6.42952 1.33594 12.7531 1.33594C19.0764 1.33594 24.2025 3.74599 24.2025 6.71892ZM20.0909 4.19867H18.1272L17.888 4.88604H19.1591L17.7093 5.39066L17.6134 5.66944L19.8444 4.93401L20.0909 4.19867ZM7.57087 5.40512H6.77096C6.77096 5.40512 7.51232 3.4187 7.57177 3.26853C7.67752 3.00244 7.74067 3.02075 7.74067 3.02075H6.63586C6.77262 3.08654 6.65146 3.34586 6.65146 3.34586C6.65146 3.34586 5.76655 5.82314 5.70491 5.9469C5.64329 6.07092 5.59711 6.0865 5.59711 6.0865H7.5104L7.77802 5.3528C7.75496 5.42266 7.57087 5.40512 7.57087 5.40512ZM10.927 6.08333H11.8282C11.8282 6.08333 11.7664 5.99141 11.805 5.89086C11.8584 5.7512 12.3365 4.44317 12.3365 4.44317L12.5443 6.08333H13.3606L14.4308 3.1658C14.4308 3.1658 14.4746 3.02896 14.5342 3.02896L13.6669 3.0264C13.6669 3.0264 13.6917 3.1271 13.6608 3.20456C13.6302 3.28202 13.1371 4.60579 13.1371 4.60579L12.9446 3.02643H12.013C12.013 3.02643 12.0612 3.10376 12.0304 3.18888C12.0052 3.25795 11.0427 5.91394 11.0427 5.91394C11.0427 5.91394 10.9811 6.08333 10.927 6.08333ZM15.0472 3.02726C15.0472 3.02726 15.1242 3.15112 15.0238 3.43743C14.9237 3.72396 14.1383 5.85277 14.1383 5.85277C14.1383 5.85277 14.0765 6.05303 13.992 6.09192L15.2241 6.09051C15.2241 6.09051 16.7178 6.14601 17.18 4.56764C17.18 4.56764 17.7653 3.01165 16.0711 3.02726H15.0472ZM15.1779 5.3856C15.1779 5.3856 15.1818 5.38438 15.3202 5.38438C15.5299 5.38438 15.9181 5.33792 16.1789 4.69935C16.6076 3.64974 16.0095 3.68523 16.0095 3.68523H15.7784L15.1779 5.3856ZM4.22006 8.5551H6.18368L6.42266 7.8676H5.15178L6.60148 7.36307L6.69755 7.08442L4.46653 7.81986L4.22006 8.5551ZM7.66126 9.82314C7.63023 9.82314 7.63023 9.72324 7.63023 9.72324L7.99138 8.75978C7.99138 8.75978 8.4413 9.64728 8.4722 9.70926C8.50305 9.77127 8.48745 9.82285 8.48745 9.82285H9.56381C9.46118 9.82285 9.35526 9.62676 9.35526 9.62676L8.81942 8.66016C9.56891 8.66016 9.80865 7.91335 9.80865 7.91335C10.1783 6.72633 8.93427 6.75723 8.93427 6.75723H7.66126C7.75356 6.8605 7.68161 7.07727 7.68161 7.07727C7.68161 7.07727 6.89101 9.34952 6.82955 9.52513C6.76787 9.70057 6.65497 9.82314 6.65497 9.82314H7.66126ZM8.42414 7.46208L8.2155 8.07863H8.41059C8.41059 8.07863 8.79063 8.11226 8.93083 7.80854C8.93083 7.80854 9.09485 7.46051 8.63636 7.46051C8.53599 7.46051 8.42414 7.46208 8.42414 7.46208ZM18.7987 9.83439C18.7217 9.83597 18.7753 9.64654 18.7753 9.64654L19.0975 8.771C19.0975 8.771 19.5319 9.65866 19.5624 9.7208C19.5933 9.78265 19.578 9.83423 19.578 9.83423H20.6926C20.5898 9.83423 20.4768 9.63814 20.4768 9.63814L19.9408 8.67126C20.6906 8.67126 20.9162 7.95137 20.9162 7.95137C21.3099 6.70843 20.056 6.76865 20.056 6.76865H18.7931C18.8857 6.87189 18.8138 7.08866 18.8138 7.08866C18.8138 7.08866 17.9902 9.36963 17.9284 9.54491C17.8669 9.72077 17.7486 9.83266 17.7486 9.83266L18.7987 9.83439ZM19.5326 8.08975C19.5326 8.08975 19.9097 8.11842 20.0251 7.8214C20.1613 7.47151 19.8214 7.48077 19.8214 7.48077H19.5426L19.3373 8.08975H19.5326ZM11.1397 9.89897C12.2508 9.89897 12.912 8.80338 12.912 8.01736C12.912 7.19282 12.5749 6.67833 11.805 6.67833C10.8227 6.67833 10.182 7.42758 10.0166 8.3591C9.86462 9.21573 10.3458 9.89897 11.1397 9.89897ZM11.2097 9.1745C11.4869 9.22593 11.7916 9.02544 11.9507 8.38478C12.192 7.41533 11.7472 7.40735 11.6661 7.39738C11.4202 7.36718 11.0919 7.65188 10.9585 8.24551C10.8974 8.51662 10.8327 9.10425 11.2097 9.1745ZM13.1758 6.76865C13.1758 6.76865 13.2522 6.80988 13.2522 7.00584V9.65863C13.2522 9.65863 13.2417 9.80387 13.1871 9.83423H14.0127C14.0127 9.83423 14.0127 9.7721 14.0946 9.66892C14.1768 9.56572 15.8915 7.25387 15.8915 7.25387C15.8915 7.25387 16.2825 6.76865 16.385 6.76865H15.2034C15.2034 6.76865 15.296 6.83065 15.2241 6.94415C15.1522 7.05775 14.102 8.63692 14.102 8.63692L14.1151 7.04406C14.1151 7.04406 14.1133 6.78865 14.2153 6.7672L13.1758 6.76865ZM18.1669 7.4919L18.4338 6.76794L16.4319 6.76817C16.4319 6.76817 16.5036 6.83184 16.4115 7.08981C16.3189 7.3481 15.5078 9.54606 15.5078 9.54606C15.5078 9.54606 15.364 9.83497 15.3232 9.83497H17.3867L17.6332 9.10223C17.6332 9.10223 17.6025 9.14343 17.4074 9.14343H16.5345L16.7195 8.64801H17.3969C17.3969 8.64801 17.5408 8.63775 17.5716 8.67908L17.8487 7.89591C17.8487 7.89591 17.8285 7.96676 17.6433 7.96676H16.9862L17.1816 7.41989H18.0131C18.0131 7.41992 18.1261 7.40424 18.1669 7.4919ZM7.7298 6.08608H8.71746C8.71746 6.08608 8.7144 6.00984 8.74014 5.96031C8.78708 5.87085 8.90962 5.65504 8.90962 5.65504H9.90366L9.90557 5.92427C9.90557 5.92427 9.91068 6.01705 9.83751 6.08865H10.8233C10.8233 6.08865 10.75 6.04732 10.7366 5.92545L10.6129 3.23156C10.6129 3.23156 10.6076 3.05939 10.6891 3.02312H9.71122C9.71122 3.02312 9.77969 3.10822 9.64877 3.30174C9.51798 3.4953 7.84745 5.98531 7.84745 5.98531C7.84745 5.98531 7.81425 6.04934 7.7298 6.08608ZM9.88472 4.06574L9.33584 4.9635H9.89259L9.88472 4.06574Z" fill="#B7C0BD"/>
</svg>
