<svg width="32" height="11" viewBox="0 0 32 11" fill="none" xmlns="http://www.w3.org/2000/svg">
<path d="M10.2231 2.57687L9.02913 5.46935L9.53093 2.57687H8.22452L7.39392 8.72549H8.80419L11.5641 2.57687H10.2231ZM12.1263 6.12904H13.2597L13.5885 5.03803H12.4551L12.8618 3.68482H14.0211L14.3585 2.57687H11.8841L10.0326 8.72551H12.4638L12.8964 7.55837H11.6937L12.1263 6.12904ZM4.73945 9.98481C4.06006 9.98481 3.42043 9.81657 2.86084 9.5199L2.52733 10.1939C3.18771 10.5391 3.94049 10.7346 4.73945 10.7346C6.24961 10.7346 7.59444 10.0359 8.46231 8.94799H7.4313C6.72255 9.59161 5.77759 9.98481 4.73945 9.98481ZM5.57723 7.65409V8.28938L7.17617 7.08937L5.62881 5.66742V6.28256H3.97824L5.62881 2.4506V5.27413L6.96532 6.50992L6.99853 0H5.53599L0.192462 10.7866L1.9668 10.8206L3.40058 7.65409H5.57723ZM1.28178 8.00098C0.948702 7.42556 0.758316 6.75906 0.758316 6.04857C0.758316 4.06968 2.23542 2.43204 4.15896 2.15418L4.54903 1.36675C2.01984 1.46564 0 3.52377 0 6.04858C0 7.06192 0.325369 8.00014 0.878385 8.76673L1.28178 8.00098ZM6.96271 8.72551V7.56393L5.57562 8.72551H6.96271ZM26.6871 5.80766C27.0072 5.80766 27.1889 5.62159 27.2408 5.44399L27.8723 3.35498C27.9935 2.94902 27.8118 2.57689 27.2494 2.57689H24.8702L23.0186 8.72551H24.3251L25.1124 6.10368H25.545C25.7007 6.10368 25.718 6.21364 25.6834 6.31514L24.9567 8.72553H26.2631L26.9379 6.48428C27.0764 6.04447 26.8861 5.84149 26.6871 5.80766ZM26.4794 3.82015L26.1334 4.96191C26.0728 5.14798 25.9603 5.19872 25.8305 5.19872H25.3806L25.8738 3.56641H26.2804C26.4794 3.56641 26.5313 3.65944 26.4794 3.82015ZM16.6425 2.57687L15.9244 4.95343L15.8812 2.57687H14.7651L12.9135 8.72549H14.1421L14.8948 6.27279L15.0073 8.72549H16.0542L17.9057 2.57687H16.6425ZM29.6805 3.68482H30.8225L31.1599 2.57687H29.1441C28.8326 2.57687 28.5211 2.66145 28.3741 3.09278L27.656 5.4778C27.5262 5.92605 27.656 6.22205 28.201 6.22205H28.8932C28.9711 6.22205 28.9711 6.25588 28.9537 6.30664L28.6509 7.3469C28.599 7.49914 28.5644 7.55835 28.3221 7.55835H27.232L26.8773 8.72549H29.0143C29.2825 8.72549 29.568 8.59863 29.6372 8.35335L30.3553 5.96833C30.537 5.36785 30.2428 5.11413 29.7757 5.11413H29.0749L29.4469 3.86242C29.4901 3.7271 29.5853 3.68482 29.6805 3.68482ZM19.3245 5.03803L18.9957 6.12904H19.2639L18.7881 7.70214H18.3468C18.1738 7.70214 18.0959 7.63447 18.1478 7.45687L19.2293 3.87087C19.2726 3.71863 19.3418 3.6848 19.4802 3.6848H20.7521L21.0895 2.57685H19.0044C18.5891 2.57685 18.3036 2.69526 18.1651 3.15196L16.8328 7.58372C16.5905 8.39563 17.0837 8.72547 17.672 8.72547H18.4766L18.3382 9.20755L19.7917 8.48866L20.8299 5.03797H19.3245V5.03803ZM22.2315 6.12904H23.3649L23.6936 5.03803H22.5602L22.9669 3.68482H24.1262L24.4636 2.57687H21.9892L20.1377 8.72549H22.5689L23.0015 7.55835H21.7989L22.2315 6.12904Z" fill="white"/>
</svg>
