<svg width="82" height="29" viewBox="0 0 82 29" fill="none" xmlns="http://www.w3.org/2000/svg">
<g opacity="0.4" clip-path="url(#clip0_19_533)">
<rect width="81.266" height="28.2174" fill="white" style="mix-blend-mode:color-burn"/>
<path d="M26.6639 6.71984L23.5504 14.2627L24.8589 6.71984H21.4521L19.2862 22.7539H22.9638L30.161 6.71984H26.6639ZM31.6271 15.983H34.5828L35.4401 13.1379H32.4845L33.5449 9.60909H36.5682L37.4481 6.71984H30.9954L26.1672 22.754H32.5071L33.6352 19.7104H30.499L31.6271 15.983ZM12.364 26.0379C10.5923 26.0379 8.92428 25.5992 7.46501 24.8255L6.59528 26.583C8.3174 27.4834 10.2805 27.9931 12.364 27.9931C16.3021 27.9931 19.809 26.1712 22.0722 23.3341H19.3836C17.5354 25.0125 15.0712 26.0379 12.364 26.0379ZM14.5487 19.96V21.6166L18.7183 18.4873L14.6832 14.7792V16.3834H10.3789L14.6832 6.39054V13.7536L18.1685 16.9763L18.2551 0H14.4411L0.50653 28.1287L5.13356 28.2174L8.87251 19.96H14.5487ZM3.34719 20.8646C2.47862 19.364 1.98214 17.6259 1.98214 15.7732C1.98214 10.6127 5.83405 6.34214 10.8502 5.61756L11.8674 3.56416C5.27187 3.82203 0.00463867 9.18911 0.00463867 15.7732C0.00463867 18.4157 0.853119 20.8624 2.29525 22.8614L3.34719 20.8646ZM18.1616 22.754V19.7249L14.5445 22.754H18.1616ZM69.5979 15.1449C70.4327 15.1449 70.9064 14.6597 71.0418 14.1966L72.6888 8.74895C73.0047 7.69031 72.5309 6.71989 71.0643 6.71989H64.8598L60.0315 22.754H63.4384L65.4915 15.9169H66.6196C67.0258 15.9169 67.0709 16.2036 66.9806 16.4683L65.0854 22.754H68.4922L70.252 16.9094C70.6132 15.7625 70.1168 15.2332 69.5979 15.1449ZM69.0564 9.962L68.1539 12.9394C67.996 13.4246 67.7027 13.557 67.3642 13.557H66.1911L67.4771 9.30031H68.5374C69.0564 9.30031 69.1918 9.5429 69.0564 9.962ZM43.4042 6.71984L41.5316 12.9173L41.4188 6.71984H38.5082L33.6799 22.7539H36.8838L38.8467 16.3579L39.14 22.7539H41.87L46.6982 6.71984H43.4042ZM77.4039 9.60909H80.3821L81.262 6.71984H76.0051C75.1929 6.71984 74.3807 6.94039 73.9971 8.06521L72.1245 14.2847C71.7861 15.4537 72.1245 16.2256 73.5459 16.2256H75.3508C75.554 16.2256 75.554 16.3138 75.5088 16.4462L74.7191 19.1589C74.5837 19.5559 74.4935 19.7103 73.8618 19.7103H71.0189L70.0939 22.7539H75.6667C76.3661 22.7539 77.1106 22.4231 77.2912 21.7835L79.1638 15.5639C79.6376 13.998 78.8705 13.3364 77.6521 13.3364H75.8246L76.7947 10.0722C76.9075 9.71936 77.1558 9.60909 77.4039 9.60909ZM50.3981 13.1379L49.5408 15.983H50.2402L48.9993 20.0853H47.8486C47.3974 20.0853 47.1943 19.9088 47.3297 19.4457L50.1499 10.0943C50.2627 9.69727 50.4433 9.60904 50.8043 9.60904H54.1209L55.0008 6.7198H49.5633C48.4804 6.7198 47.7358 7.02857 47.3748 8.21953L43.9003 19.7764C43.2686 21.8937 44.5546 22.7539 46.0888 22.7539H48.187L47.8261 24.011L51.6164 22.1363L54.3239 13.1378H50.3981V13.1379ZM57.9788 15.983H60.9344L61.7918 13.1379H58.8361L59.8965 9.60909H62.9198L63.7997 6.71984H57.347L52.5188 22.7539H58.8587L59.9868 19.7103H56.8507L57.9788 15.983Z" fill="black"/>
</g>
<defs>
<clipPath id="clip0_19_533">
<rect width="81.266" height="28.2174" fill="white"/>
</clipPath>
</defs>
</svg>
